<svg width="14" height="14" viewBox="0 0 14 14" fill="none" xmlns="http://www.w3.org/2000/svg">
<path fill-rule="evenodd" clip-rule="evenodd" d="M0.333344 6.99992C0.333344 3.31802 3.31811 0.333252 7.00001 0.333252C10.6819 0.333252 13.6667 3.31802 13.6667 6.99992C13.6667 10.6818 10.6819 13.6666 7.00001 13.6666C3.31811 13.6666 0.333344 10.6818 0.333344 6.99992ZM7.00001 1.66659C4.05449 1.66659 1.66668 4.0544 1.66668 6.99992C1.66668 9.94544 4.05449 12.3333 7.00001 12.3333C9.94553 12.3333 12.3333 9.94544 12.3333 6.99992C12.3333 4.0544 9.94553 1.66659 7.00001 1.66659Z" fill="#434953"/>
<path fill-rule="evenodd" clip-rule="evenodd" d="M7.66668 3.66659C7.66668 3.2984 7.3682 2.99992 7.00001 2.99992C6.63182 2.99992 6.33334 3.2984 6.33334 3.66659V6.33325H3.66668C3.29849 6.33325 3.00001 6.63173 3.00001 6.99992C3.00001 7.36811 3.29849 7.66659 3.66668 7.66659H6.33334V10.3333C6.33334 10.7014 6.63182 10.9999 7.00001 10.9999C7.3682 10.9999 7.66668 10.7014 7.66668 10.3333V7.66659H10.3333C10.7015 7.66659 11 7.36811 11 6.99992C11 6.63173 10.7015 6.33325 10.3333 6.33325H7.66668V3.66659Z" fill="#434953"/>
</svg>
