<svg width="14" height="14" viewBox="0 0 14 14" fill="none" xmlns="http://www.w3.org/2000/svg">
<path d="M5.58234 10.9783C5.47151 10.9783 5.36068 10.9374 5.27318 10.8499L1.73234 7.30911C1.56318 7.13995 1.56318 6.85995 1.73234 6.69078L5.27318 3.14995C5.44234 2.98078 5.72234 2.98078 5.89151 3.14995C6.06068 3.31911 6.06068 3.59911 5.89151 3.76828L2.65984 6.99995L5.89151 10.2316C6.06068 10.4008 6.06068 10.6808 5.89151 10.8499C5.80984 10.9374 5.69318 10.9783 5.58234 10.9783Z" fill="#434953"/>
<path d="M11.9581 7.4375H2.14062C1.90146 7.4375 1.70312 7.23917 1.70312 7C1.70312 6.76083 1.90146 6.5625 2.14062 6.5625H11.9581C12.1973 6.5625 12.3956 6.76083 12.3956 7C12.3956 7.23917 12.1973 7.4375 11.9581 7.4375Z" fill="#434953"/>
</svg>
